<svg width="49" height="50" viewBox="0 0 49 50" fill="none" xmlns="http://www.w3.org/2000/svg">
<path d="M24.5007 0.832031C11.1607 0.832031 0.333984 11.6587 0.333984 24.9987C0.333984 38.3387 11.1607 49.1654 24.5007 49.1654C37.8407 49.1654 48.6673 38.3387 48.6673 24.9987C48.6673 11.6587 37.8407 0.832031 24.5007 0.832031ZM12.5865 40.1754C13.6257 38.0004 19.9573 35.8737 24.5007 35.8737C29.044 35.8737 35.3998 38.0004 36.4148 40.1754C33.1282 42.7854 28.9957 44.332 24.5007 44.332C20.0057 44.332 15.8732 42.7854 12.5865 40.1754ZM39.8707 36.6712C36.4148 32.4662 28.029 31.0404 24.5007 31.0404C20.9723 31.0404 12.5865 32.4662 9.13065 36.6712C6.66565 33.4329 5.16732 29.397 5.16732 24.9987C5.16732 14.3412 13.8432 5.66536 24.5007 5.66536C35.1582 5.66536 43.834 14.3412 43.834 24.9987C43.834 29.397 42.3357 33.4329 39.8707 36.6712ZM24.5007 10.4987C19.8123 10.4987 16.0423 14.2687 16.0423 18.957C16.0423 23.6454 19.8123 27.4154 24.5007 27.4154C29.189 27.4154 32.959 23.6454 32.959 18.957C32.959 14.2687 29.189 10.4987 24.5007 10.4987ZM24.5007 22.582C22.4948 22.582 20.8757 20.9629 20.8757 18.957C20.8757 16.9512 22.4948 15.332 24.5007 15.332C26.5065 15.332 28.1257 16.9512 28.1257 18.957C28.1257 20.9629 26.5065 22.582 24.5007 22.582Z" fill="#F2F0F0"/>
</svg>
