<svg width="44" height="44" viewBox="0 0 44 44" fill="none" xmlns="http://www.w3.org/2000/svg">
<path d="M38.9167 0.25H5.08333C2.425 0.25 0.25 2.425 0.25 5.08333V38.9167C0.25 41.575 2.425 43.75 5.08333 43.75H38.9167C41.575 43.75 43.75 41.575 43.75 38.9167V5.08333C43.75 2.425 41.575 0.25 38.9167 0.25ZM24.4167 34.0833H12.3333C11.0042 34.0833 9.91667 32.9958 9.91667 31.6667C9.91667 30.3375 11.0042 29.25 12.3333 29.25H24.4167C25.7458 29.25 26.8333 30.3375 26.8333 31.6667C26.8333 32.9958 25.7458 34.0833 24.4167 34.0833ZM31.6667 24.4167H12.3333C11.0042 24.4167 9.91667 23.3292 9.91667 22C9.91667 20.6708 11.0042 19.5833 12.3333 19.5833H31.6667C32.9958 19.5833 34.0833 20.6708 34.0833 22C34.0833 23.3292 32.9958 24.4167 31.6667 24.4167ZM31.6667 14.75H12.3333C11.0042 14.75 9.91667 13.6625 9.91667 12.3333C9.91667 11.0042 11.0042 9.91667 12.3333 9.91667H31.6667C32.9958 9.91667 34.0833 11.0042 34.0833 12.3333C34.0833 13.6625 32.9958 14.75 31.6667 14.75Z" fill="#F2F0F0"/>
</svg>
