<svg width="49" height="44" viewBox="0 0 49 44" fill="none" xmlns="http://www.w3.org/2000/svg">
<path fill-rule="evenodd" clip-rule="evenodd" d="M43.834 0.25H5.16732C2.50898 0.25 0.333984 2.425 0.333984 5.08333V38.9167C0.333984 41.575 2.50898 43.75 5.16732 43.75H43.834C46.4923 43.75 48.6673 41.575 48.6673 38.9167V5.08333C48.6673 2.425 46.4923 0.25 43.834 0.25ZM17.2507 34.0833H10.0007C8.67148 34.0833 7.58398 32.9958 7.58398 31.6667C7.58398 30.3375 8.67148 29.25 10.0007 29.25H17.2507C18.5798 29.25 19.6673 30.3375 19.6673 31.6667C19.6673 32.9958 18.5798 34.0833 17.2507 34.0833ZM17.2507 24.4167H10.0007C8.67148 24.4167 7.58398 23.3292 7.58398 22C7.58398 20.6708 8.67148 19.5833 10.0007 19.5833H17.2507C18.5798 19.5833 19.6673 20.6708 19.6673 22C19.6673 23.3292 18.5798 24.4167 17.2507 24.4167ZM17.2507 14.75H10.0007C8.67148 14.75 7.58398 13.6625 7.58398 12.3333C7.58398 11.0042 8.67148 9.91667 10.0007 9.91667H17.2507C18.5798 9.91667 19.6673 11.0042 19.6673 12.3333C19.6673 13.6625 18.5798 14.75 17.2507 14.75ZM40.6923 19.8733L33.0315 27.5342C32.089 28.4767 30.5423 28.4767 29.5998 27.5342L26.1923 24.1025C25.2498 23.16 25.2498 21.6375 26.1923 20.695C27.1348 19.7525 28.6573 19.7525 29.5998 20.695L31.3157 22.4108L37.2848 16.4417C38.2273 15.4992 39.7498 15.4992 40.6923 16.4417L40.7165 16.4658C41.6348 17.4083 41.6348 18.955 40.6923 19.8733Z" fill="#F2F0F0"/>
</svg>
