<svg width="35" height="35" viewBox="0 0 35 35" fill="none" xmlns="http://www.w3.org/2000/svg">
<path d="M20.4914 25.9055V20.9172H24.482V25.9055C24.482 26.4542 24.9309 26.9031 25.4796 26.9031H28.4726C29.0213 26.9031 29.4702 26.4542 29.4702 25.9055V18.9219H31.1662C31.6251 18.9219 31.8446 18.3533 31.4954 18.054L23.1551 10.5417C22.776 10.2025 22.1974 10.2025 21.8183 10.5417L13.4779 18.054C13.1387 18.3533 13.3482 18.9219 13.8071 18.9219H15.5031V25.9055C15.5031 26.4542 15.9521 26.9031 16.5008 26.9031H19.4937C20.0424 26.9031 20.4914 26.4542 20.4914 25.9055Z" fill="#F2F0F0"/>
<path d="M11.8418 8.54639C12.2209 8.20719 12.7995 8.20719 13.1786 8.54639L14.7197 9.93448L6.49984 17.6835C6.14958 18.007 6.36592 18.6216 6.8398 18.6216H9.31987V24.9078H6.52431C5.97561 24.9078 5.52667 24.4589 5.52667 23.9102V16.9266H3.83067C3.37175 16.9266 3.16224 16.358 3.50144 16.0587L11.8418 8.54639Z" fill="#F2F0F0"/>
<path d="M16.83 9.54404C17.2091 9.20484 17.7878 9.20484 18.1669 9.54404L19.7079 10.9321L11.4881 18.6812C11.1378 19.0046 11.3542 19.6192 11.828 19.6192H14.3081V25.9055H11.5126C10.9638 25.9055 10.5149 25.4565 10.5149 24.9078V17.9243H8.8189C8.35998 17.9243 8.15048 17.3556 8.48968 17.0563L16.83 9.54404Z" fill="#F2F0F0"/>
</svg>
