<svg width="34" height="34" viewBox="0 0 34 34" fill="none" xmlns="http://www.w3.org/2000/svg">
<path d="M5.66602 12.7487C5.66602 13.5279 6.30352 14.1654 7.08268 14.1654C7.86185 14.1654 8.49935 13.5279 8.49935 12.7487V9.91536H11.3327C12.1118 9.91536 12.7493 9.27786 12.7493 8.4987C12.7493 7.71953 12.1118 7.08203 11.3327 7.08203H8.49935V4.2487C8.49935 3.46953 7.86185 2.83203 7.08268 2.83203C6.30352 2.83203 5.66602 3.46953 5.66602 4.2487V7.08203H2.83268C2.05352 7.08203 1.41602 7.71953 1.41602 8.4987C1.41602 9.27786 2.05352 9.91536 2.83268 9.91536H5.66602V12.7487Z" fill="#F2F0F0"/>
<path d="M18.416 24.082C20.7632 24.082 22.666 22.1792 22.666 19.832C22.666 17.4848 20.7632 15.582 18.416 15.582C16.0688 15.582 14.166 17.4848 14.166 19.832C14.166 22.1792 16.0688 24.082 18.416 24.082Z" fill="#F2F0F0"/>
<path fill-rule="evenodd" clip-rule="evenodd" d="M28.616 9.60055H24.5743L22.9933 7.90055C22.5215 7.38425 21.833 7.08203 21.119 7.08203L13.7689 7.08614C14.0141 7.50862 14.1748 7.97448 14.1802 8.49862C14.1964 10.0569 12.9346 11.345 11.3764 11.3611L9.95978 11.3758L9.97444 12.7924C9.99057 14.3506 8.72884 15.6388 7.17059 15.6549C6.64645 15.6603 6.17736 15.5093 5.74989 15.2729L5.66602 15.1559V27.2302C5.66602 28.6154 6.81352 29.7487 8.21602 29.7487H28.616C30.0185 29.7487 31.166 28.6154 31.166 27.2302V12.1191C31.166 10.7339 30.0185 9.60055 28.616 9.60055ZM12.041 19.6746C12.041 23.1502 14.897 25.9709 18.416 25.9709C21.935 25.9709 24.791 23.1502 24.791 19.6746C24.791 16.1991 21.935 13.3783 18.416 13.3783C14.897 13.3783 12.041 16.1991 12.041 19.6746Z" fill="#F2F0F0"/>
<path fill-rule="evenodd" clip-rule="evenodd" d="M22.666 19.832C22.666 22.1792 20.7632 24.082 18.416 24.082C16.0688 24.082 14.166 22.1792 14.166 19.832C14.166 17.4848 16.0688 15.582 18.416 15.582C20.7632 15.582 22.666 17.4848 22.666 19.832Z" fill="#F2F0F0"/>
</svg>
