<svg width="28" height="28" viewBox="0 0 28 28" fill="none" xmlns="http://www.w3.org/2000/svg">
<path d="M5.91601 14.9987C6.69518 14.9987 7.33268 15.6362 7.33268 16.4154V23.8104C7.33268 24.5895 7.97018 25.227 8.74935 25.227H22.916C23.6952 25.227 24.3327 24.5895 24.3327 23.8104V9.33203C24.3327 8.55286 23.6952 7.91536 22.916 7.91536H15.8327C15.0535 7.91536 14.416 7.27786 14.416 6.4987C14.416 5.71953 15.0535 5.08203 15.8327 5.08203H24.3327C25.891 5.08203 27.166 6.35703 27.166 7.91536V24.9154C27.166 26.4737 25.891 27.7487 24.3327 27.7487H7.33268C5.77435 27.7487 4.49935 26.4737 4.49935 24.9154V16.4154C4.49935 15.6362 5.13685 14.9987 5.91601 14.9987Z" fill="#F2F0F0"/>
<path d="M1.63703 5.08203H4.4987V2.22036C4.4987 1.45536 5.12203 0.832031 5.88703 0.832031H5.92953C6.7087 0.832031 7.33203 1.45536 7.33203 2.22036V5.08203H10.1795C10.9445 5.08203 11.5679 5.70536 11.582 6.47036C11.582 6.48453 11.582 6.4987 11.582 6.51286C11.582 7.29203 10.9587 7.91536 10.1795 7.91536H7.33203V10.7629C7.33203 11.5279 6.7087 12.1654 5.92953 12.1512C5.91536 12.1512 5.9012 12.1512 5.88703 12.1512C5.12203 12.1512 4.4987 11.5279 4.4987 10.7629V7.91536H1.63703C0.87203 7.91536 0.248697 7.29203 0.248697 6.52703V6.47036C0.248697 5.70536 0.87203 5.08203 1.63703 5.08203Z" fill="#F2F0F0"/>
<path d="M11.5833 10.75H20.0833C20.8625 10.75 21.5 11.3875 21.5 12.1667C21.5 12.9458 20.8625 13.5833 20.0833 13.5833H11.5833C10.8042 13.5833 10.1667 12.9458 10.1667 12.1667C10.1667 11.3875 10.8042 10.75 11.5833 10.75Z" fill="#F2F0F0"/>
<path d="M11.5833 15H20.0833C20.8625 15 21.5 15.6375 21.5 16.4167C21.5 17.1958 20.8625 17.8333 20.0833 17.8333H11.5833C10.8042 17.8333 10.1667 17.1958 10.1667 16.4167C10.1667 15.6375 10.8042 15 11.5833 15Z" fill="#F2F0F0"/>
<path d="M11.5833 19.25H20.0833C20.8625 19.25 21.5 19.8875 21.5 20.6667C21.5 21.4458 20.8625 22.0833 20.0833 22.0833H11.5833C10.8042 22.0833 10.1667 21.4458 10.1667 20.6667C10.1667 19.8875 10.8042 19.25 11.5833 19.25Z" fill="#F2F0F0"/>
</svg>
