<svg width="14" height="17" viewBox="0 0 14 17" fill="none" xmlns="http://www.w3.org/2000/svg">
<path d="M3.51962 0.75H1.30393C0.998001 0.75 0.75 1.0005 0.750001 1.31116L0.75 8.625H4.07355V1.3125C4.07355 1.00184 3.82555 0.75 3.51962 0.75Z" fill="#F2F0F0"/>
<path d="M0.787762 9.90225C0.888326 10.1115 1.08197 10.3694 1.435 10.5539C1.90136 10.7977 2.33393 11.1955 2.33393 11.7218V15.9375C2.33393 16.2482 2.58193 16.5 2.88786 16.5H8.15522C8.46114 16.5 8.70914 16.2482 8.70914 15.9375V14.2443C8.70914 13.9622 8.91562 13.7261 9.18819 13.6716C11.4382 13.2218 12.6012 11.9081 12.9363 11.4375C13.4483 10.7187 13.504 9.83885 13.4998 9.18739C13.4978 8.87673 13.2423 8.625 12.9363 8.625H4.07355H0.75V9.71427C0.75 9.77915 0.759749 9.84394 0.787762 9.90225Z" fill="#F2F0F0"/>
<path d="M0.750001 1.31116C0.75 1.0005 0.998001 0.75 1.30393 0.75H3.51962C3.82555 0.75 4.07355 1.00184 4.07355 1.3125V8.625M0.750001 1.31116L0.75 9.71427M0.750001 1.31116L0.75 8.625M4.07355 8.63156V8.625M0.75 9.71427C0.75 9.77915 0.759749 9.84394 0.787762 9.90225C0.888326 10.1115 1.08197 10.3694 1.435 10.5539C1.90136 10.7977 2.33393 11.1955 2.33393 11.7218V15.9375C2.33393 16.2482 2.58193 16.5 2.88786 16.5H8.15522C8.46114 16.5 8.70914 16.2482 8.70914 15.9375V14.2443C8.70914 13.9622 8.91562 13.7261 9.18819 13.6716C11.4382 13.2218 12.6012 11.9081 12.9363 11.4375C13.4483 10.7187 13.504 9.83885 13.4998 9.18739C13.4978 8.87673 13.2423 8.625 12.9363 8.625H4.07355M0.75 9.71427V8.625M0.75 8.625H4.07355M10.4437 6.9375H6.01657C5.86124 6.9375 5.73532 6.81158 5.73532 6.65625V6.65625C5.73532 6.50092 5.86124 6.375 6.01657 6.375H13.209C13.3644 6.375 13.4903 6.50092 13.4903 6.65625V6.65625C13.4903 6.81158 13.3644 6.9375 13.209 6.9375H10.4437Z" stroke="#F2F0F0"/>
</svg>
