<svg width="15" height="19" viewBox="0 0 15 19" fill="none" xmlns="http://www.w3.org/2000/svg">
<path d="M1.22029 16.4062C1.22029 17.5063 2.15332 18.4062 3.29369 18.4062H11.5873C12.7276 18.4062 13.6607 17.5063 13.6607 16.4062V6.40625C13.6607 5.30625 12.7276 4.40625 11.5873 4.40625H3.29369C2.15332 4.40625 1.22029 5.30625 1.22029 6.40625V16.4062ZM4.50662 8.57625C4.91093 8.18625 5.56405 8.18625 5.96836 8.57625L7.44047 9.99625L8.91259 8.57625C9.3169 8.18625 9.97002 8.18625 10.3743 8.57625C10.7786 8.96625 10.7786 9.59625 10.3743 9.98625L8.90222 11.4062L10.3743 12.8263C10.7786 13.2163 10.7786 13.8462 10.3743 14.2362C9.97002 14.6263 9.3169 14.6263 8.91259 14.2362L7.44047 12.8162L5.96836 14.2362C5.56405 14.6263 4.91093 14.6263 4.50662 14.2362C4.10231 13.8462 4.10231 13.2163 4.50662 12.8263L5.97873 11.4062L4.50662 9.98625C4.10231 9.60625 4.10231 8.96625 4.50662 8.57625ZM11.0689 1.40625L10.3329 0.69625C10.1463 0.51625 9.87671 0.40625 9.60717 0.40625H5.27378C5.00424 0.40625 4.73469 0.51625 4.54809 0.69625L3.81203 1.40625H1.22029C0.650108 1.40625 0.183594 1.85625 0.183594 2.40625C0.183594 2.95625 0.650108 3.40625 1.22029 3.40625H13.6607C14.2308 3.40625 14.6974 2.95625 14.6974 2.40625C14.6974 1.85625 14.2308 1.40625 13.6607 1.40625H11.0689Z" fill="#F2F0F0"/>
</svg>
