<svg width="16" height="20" viewBox="0 0 16 20" fill="none" xmlns="http://www.w3.org/2000/svg">
<path d="M1.49935 17.5833C1.49935 18.775 2.47435 19.75 3.66602 19.75H12.3327C13.5243 19.75 14.4993 18.775 14.4993 17.5833V6.75C14.4993 5.55833 13.5243 4.58333 12.3327 4.58333H3.66602C2.47435 4.58333 1.49935 5.55833 1.49935 6.75V17.5833ZM14.4993 1.33333H11.791L11.0218 0.564167C10.8268 0.369167 10.5452 0.25 10.2635 0.25H5.73518C5.45352 0.25 5.17185 0.369167 4.97685 0.564167L4.20768 1.33333H1.49935C0.903516 1.33333 0.416016 1.82083 0.416016 2.41667C0.416016 3.0125 0.903516 3.5 1.49935 3.5H14.4993C15.0952 3.5 15.5827 3.0125 15.5827 2.41667C15.5827 1.82083 15.0952 1.33333 14.4993 1.33333Z" fill="#F2F0F0"/>
</svg>
