<svg width="14" height="20" viewBox="0 0 14 20" fill="none" xmlns="http://www.w3.org/2000/svg">
<path d="M12 4H10V1C10 0.45 9.55 0 9 0H5C4.45 0 4 0.45 4 1V4H2C0.9 4 0 4.9 0 6V17C0 18.1 0.9 19 2 19C2 19.55 2.45 20 3 20C3.55 20 4 19.55 4 19H10C10 19.55 10.45 20 11 20C11.55 20 12 19.55 12 19C13.1 19 14 18.1 14 17V6C14 4.9 13.1 4 12 4ZM3.75 16C3.34 16 3 15.66 3 15.25V7.75C3 7.34 3.34 7 3.75 7C4.16 7 4.5 7.34 4.5 7.75V15.25C4.5 15.66 4.16 16 3.75 16ZM7 16C6.59 16 6.25 15.66 6.25 15.25V7.75C6.25 7.34 6.59 7 7 7C7.41 7 7.75 7.34 7.75 7.75V15.25C7.75 15.66 7.41 16 7 16ZM8.5 4H5.5V1.5H8.5V4ZM10.25 16C9.84 16 9.5 15.66 9.5 15.25V7.75C9.5 7.34 9.84 7 10.25 7C10.66 7 11 7.34 11 7.75V15.25C11 15.66 10.66 16 10.25 16Z" fill="#F2F0F0"/>
</svg>
