<svg width="22" height="17" viewBox="0 0 22 17" fill="none" xmlns="http://www.w3.org/2000/svg">
<path d="M8.7824 5.5632L8.33873 5.11266C8.27192 5.04482 8.27192 4.93522 8.33873 4.86738C8.40554 4.79954 8.51346 4.79954 8.58027 4.86738L8.90402 5.19442L9.91128 4.17156C9.97808 4.10372 10.086 4.10372 10.1528 4.17156C10.2196 4.23941 10.2196 4.349 10.1528 4.41684L9.02394 5.5632C8.95884 5.63104 8.84921 5.63104 8.7824 5.5632Z" fill="#F2F0F0"/>
<path fill-rule="evenodd" clip-rule="evenodd" d="M15.3841 1.73744H13.1593C12.9357 1.07637 12.3502 0.597656 11.6583 0.597656C10.9664 0.597656 10.3809 1.07637 10.1573 1.73744H7.9325C7.34702 1.73744 6.86799 2.25034 6.86799 2.87723V7.57955H8.17167C8.2368 7.54896 8.30864 7.53196 8.38401 7.53196H15.1969C15.2723 7.53196 15.3441 7.54896 15.4092 7.57955H16.4486V2.87723C16.4486 2.25034 15.9696 1.73744 15.3841 1.73744ZM12.1906 2.30733C12.1906 1.99389 11.9511 1.73744 11.6583 1.73744C11.3656 1.73744 11.1261 1.99389 11.1261 2.30733C11.1261 2.62077 11.3656 2.87723 11.6583 2.87723C11.9511 2.87723 12.1906 2.62077 12.1906 2.30733ZM12.3484 6.30393H15.1969C15.4897 6.30393 15.7292 6.04748 15.7292 5.73404C15.7292 5.4206 15.4897 5.16415 15.1969 5.16415H12.3484C12.0557 5.16415 11.8162 5.4206 11.8162 5.73404C11.8162 6.04748 12.0557 6.30393 12.3484 6.30393ZM7.90876 3.50706L9.10787 2.96606C9.19524 2.92605 9.29802 2.92605 9.38538 2.96606L10.5845 3.50706C10.7078 3.56272 10.7883 3.68797 10.7883 3.8254V4.64298C10.7883 5.60843 10.1305 6.51125 9.24663 6.73043C8.36271 6.51125 7.70491 5.60843 7.70491 4.64298V3.8254C7.70491 3.68797 7.78543 3.56272 7.90876 3.50706ZM12.1906 4.64298H15.0391C15.3318 4.64298 15.5713 4.38653 15.5713 4.07309C15.5713 3.75965 15.3318 3.5032 15.0391 3.5032H12.1906C11.8978 3.5032 11.6583 3.75965 11.6583 4.07309C11.6583 4.38653 11.8978 4.64298 12.1906 4.64298Z" fill="#F2F0F0"/>
<path fill-rule="evenodd" clip-rule="evenodd" d="M4.29187 8.12607V8.33374C3.83826 8.15339 3.35186 8.06048 2.86546 8.06048C2.08942 8.06048 1.31337 8.29548 0.652084 8.76549C0.373362 8.96223 0.340572 9.36119 0.581038 9.60165L0.623448 9.64406L1.98558 11.0062H2.59221V11.6128C3.06221 12.0828 3.6743 12.3288 4.29187 12.3561V13.5912H3.19884C2.89826 13.5912 2.65232 13.8371 2.65232 14.1377V15.2307C2.65232 15.8319 3.14419 16.3238 3.74535 16.3238H9.21049C9.29263 16.3238 9.37334 16.3178 9.4522 16.3062C9.86773 16.2451 10.232 16.0288 10.4844 15.7178C10.7131 15.436 10.85 15.0765 10.85 14.6842V11.9955V10.9035V9.81153V8.67174V8.12607C10.85 7.82548 10.6041 7.57955 10.3035 7.57955H4.83838C4.5378 7.57955 4.29187 7.82548 4.29187 8.12607ZM3.68524 9.9077V11.0827C3.90384 11.2029 4.15524 11.2685 4.4121 11.2685C4.81105 11.2685 5.18268 11.11 5.4614 10.8313L5.57071 10.722L4.80012 9.95142C4.68497 9.83748 4.56175 9.73483 4.43171 9.64406C3.97547 9.32561 3.43536 9.15351 2.86546 9.15351C2.52116 9.15351 2.18232 9.21909 1.87081 9.33932L2.17555 9.64406L2.43918 9.9077H3.68524ZM8.66397 14.6842C8.66397 14.9848 8.90991 15.2307 9.21049 15.2307C9.29712 15.2307 9.37922 15.2103 9.4522 15.174C9.63241 15.0844 9.757 14.8982 9.757 14.6842V10.8054V9.64406V8.67258H5.38489V9.01142L6.02072 9.64406L8.66397 12.2741V13.0447H7.89339L6.34676 11.5035L6.23745 11.6128C5.98606 11.8642 5.69641 12.05 5.38489 12.1757V13.5912H8.11746C8.41804 13.5912 8.66397 13.8371 8.66397 14.1377V14.6842Z" fill="#F2F0F0"/>
<path d="M10.85 8.67174V9.81153H11.7748V9.75124V8.67174H10.85Z" fill="#F2F0F0"/>
<path d="M10.85 11.9955H11.7748V10.9513H10.85V11.9955Z" fill="#F2F0F0"/>
<path fill-rule="evenodd" clip-rule="evenodd" d="M20.5194 7.57955H12.7465C12.2121 7.57955 11.7748 8.01678 11.7748 8.55116V8.67174V9.75124V9.81153V10.9513V11.9955V15.3524C11.7748 15.8868 12.2121 16.3241 12.7465 16.3241H20.5194L20.5315 16.324L20.5387 16.3239L20.549 16.3236C21.0698 16.3078 21.491 15.8769 21.491 15.3524V8.55116C21.491 8.01678 21.0538 7.57955 20.5194 7.57955ZM13.7181 14.3808H15.1755C15.4427 14.3808 15.6613 14.1622 15.6613 13.895C15.6613 13.6278 15.4427 13.4092 15.1755 13.4092H13.7181C13.4509 13.4092 13.2323 13.6278 13.2323 13.895C13.2323 14.1622 13.4509 14.3808 13.7181 14.3808ZM13.7181 12.4376H15.1755C15.4427 12.4376 15.6613 12.219 15.6613 11.9518C15.6613 11.6846 15.4427 11.466 15.1755 11.466H13.7181C13.4509 11.466 13.2323 11.6846 13.2323 11.9518C13.2323 12.219 13.4509 12.4376 13.7181 12.4376ZM13.7181 10.4944H15.1755C15.4427 10.4944 15.6613 10.2758 15.6613 10.0086C15.6613 9.74139 15.4427 9.52278 15.1755 9.52278H13.7181C13.4509 9.52278 13.2323 9.74139 13.2323 10.0086C13.2323 10.2758 13.4509 10.4944 13.7181 10.4944ZM18.3478 13.0643L19.8878 11.5243C20.0773 11.3397 20.0773 11.0288 19.8927 10.8393L19.8878 10.8345C19.8776 10.8242 19.867 10.8145 19.8561 10.8054C19.6765 10.6547 19.4142 10.6547 19.2346 10.8054C19.2237 10.8145 19.2131 10.8242 19.2028 10.8345L18.0029 12.0344L17.658 11.6895C17.4685 11.5 17.1624 11.5 16.973 11.6895C16.7835 11.8789 16.7835 12.185 16.973 12.3745L17.658 13.0643C17.8474 13.2538 18.1584 13.2538 18.3478 13.0643Z" fill="#F2F0F0"/>
</svg>
