<svg width="50" height="42" viewBox="0 0 50 42" fill="none" xmlns="http://www.w3.org/2000/svg">
<path d="M18.776 3.20052V4.1629C16.674 3.32715 14.42 2.89662 12.1661 2.89662C8.56984 2.89662 4.97361 3.98562 1.90922 6.16361C0.617616 7.07533 0.465663 8.9241 1.57999 10.0384L8.08866 16.5471H10.8998V19.3582C13.0778 21.5362 15.9143 22.6759 18.776 22.8025V28.5261H13.7109C12.318 28.5261 11.1784 29.6657 11.1784 31.0586V36.1237C11.1784 38.9096 13.4577 41.1889 16.2435 41.1889H41.569C45.7731 41.1889 49.1667 37.7952 49.1667 33.5912V3.20052C49.1667 1.80762 48.0271 0.667969 46.6342 0.667969H21.3086C19.9157 0.667969 18.776 1.80762 18.776 3.20052ZM15.9649 16.9016V11.4567H10.1907L7.55682 8.8228C9.00038 8.26563 10.5706 7.96173 12.1661 7.96173C15.5597 7.96173 18.7254 9.27866 21.1313 11.6593L24.7022 15.2302L24.1957 15.7367C22.9041 17.0283 21.182 17.7627 19.3332 17.7627C18.1429 17.7627 16.9779 17.4588 15.9649 16.9016ZM44.1016 33.5912C44.1016 34.9841 42.9619 36.1237 41.569 36.1237C40.1761 36.1237 39.0365 34.9841 39.0365 33.5912V31.0586C39.0365 29.6657 37.8968 28.5261 36.5039 28.5261H23.8412V21.9668C25.2847 21.3843 26.627 20.5232 27.7919 19.3582L28.2985 18.8517L35.4656 25.9935H39.0365V22.4226L23.8412 7.30326V5.73308H44.1016V33.5912Z" fill="#F2F0F0"/>
</svg>
