<svg width="43" height="42" viewBox="0 0 43 42" fill="none" xmlns="http://www.w3.org/2000/svg">
<rect x="0.5" width="42" height="42" rx="21" fill="#5F425A"/>
<g clip-path="url(#clip0)">
<path d="M20.8857 7.22059L23.1795 5.41797L20.5868 7.18006L19.6088 9.04637L18.0661 8.28016L17.7764 7.18199L17.7671 8.39789L19.3726 9.42852L17.1526 10.2584L13.7979 8.82056L16.5658 10.5807L17.8668 14.3134L17.7376 14.3635L17.0548 14.3828L18.1676 16.4286L17.0548 16.3302L16.337 16.6911L10.0242 16.0697L7.53485 12.669L9.30082 16.4634L8.5793 17.1948L5.9165 17.9784L8.7177 17.4535L9.88578 16.5502L15.1652 17.2894L14.3551 18.5323L14.3385 18.5478L14.3348 18.542L10.1681 22.3615L6.01062 23.6044L6.02353 26.3141L6.48302 24.1294L8.91146 23.3882L8.63097 25.4977L9.59607 23.2763L10.6793 22.8575L14.1392 20.9545L14.3902 22.209L13.4749 23.5735L14.8239 28.192L13.9399 23.4326L15.1154 22.2186L15.1671 19.7656L15.7875 19.6949L16.7194 22.4413L16.3466 19.5675L19.79 18.921L20.1387 19.4749L19.6073 21.1154L20.4321 19.4903L20.3306 18.7994L20.6222 18.618L21.9582 20.741L21.1297 23.0917L23.2813 26.4808L21.1813 29.9587L27.1875 37.2244L24.3974 31.6081L27.3942 30.8091L29.0476 33.6423L27.4643 30.4868L24.1298 31.06L23.0152 28.8173L25.2444 25.3009L23.4049 22.456L23.8567 20.4662L25.4344 19.6035L29.1343 22.456L39.9165 20.4662L29.5292 21.3347L27.1026 19.7116L26.0932 19.0303L26.669 17.7468L30.1326 17.3357L30.3928 14.7206L29.7931 16.9922L26.2335 17.2566L25.4234 18.5883L23.4679 19.0303L23.0728 18.4636L23.8567 16.7799L26.2335 15.068L25.8976 12.7906L27.5639 10.7293L30.5441 9.63503L33.9377 10.2623L30.5607 9.27219L27.9884 10.2102L30.2766 7.38657L25.571 12.1672L24.0209 11.1462L25.3034 12.5995L25.4843 14.7688L22.4948 14.5488L22.0557 14.4735L22.2531 13.771L21.4836 12.1672L21.8084 13.8116L21.3544 14.352L21.1016 13.9795L20.8359 14.352L20.3949 14.3134L20.0498 14.1242L17.3686 10.7004L19.904 9.57713L20.8857 7.22059Z" fill="#DCD6D6"/>
</g>
<defs>
<clipPath id="clip0">
<rect width="34" height="34" fill="white" transform="translate(4.5 4)"/>
</clipPath>
</defs>
</svg>
