<svg width="43" height="42" viewBox="0 0 43 42" fill="none" xmlns="http://www.w3.org/2000/svg">
<rect x="0.5" width="42" height="42" rx="21" fill="#5F425A"/>
<path d="M12.3335 16.5469C12.3185 16.6626 12.2836 16.7752 12.2303 16.8815C11.9376 17.4632 11.2308 17.6196 10.5555 17.6196C9.80708 17.6196 9.10189 17.4272 9.04534 17.4132C7.35887 16.9456 7.294 15.9793 7.3439 15.5868L7.3439 15.5868C7.34556 15.579 7.34722 15.5712 7.34722 15.5634L7.36219 15.4805C7.36386 15.4727 7.36552 15.4664 7.36718 15.4586C7.57342 14.5564 8.41499 14.0873 9.51103 14.264C10.5771 14.436 12.4848 15.3695 12.3335 16.5422V16.5469Z" fill="#DCD6D6"/>
<path d="M30.0713 29.2905C30.2061 29.2905 30.3374 29.3077 30.4638 29.339C30.9911 29.4719 31.4501 29.8644 31.6663 30.3632C31.8626 30.8182 31.8277 31.3201 31.5699 31.7407C31.2522 32.2567 30.6468 32.5648 29.9483 32.5648C29.3728 32.5648 28.8173 32.3443 28.463 31.9753C28.0888 31.5891 28.009 31.023 28.2518 30.4961C28.5212 29.9129 29.2514 29.2905 30.0713 29.2905Z" fill="#DCD6D6"/>
<path d="M29.1433 13.1905C28.8456 13.1905 28.5578 13.1248 28.2951 12.9716C28.1903 12.9106 28.0938 12.8387 28.009 12.7573C27.0709 11.8661 27.6198 10.2493 28.1853 9.43931C28.9204 8.39167 30.0314 7.99764 31.0892 8.412C31.4152 8.54022 31.6913 8.71065 31.9108 8.91705L31.9141 8.92175C32.4979 9.47996 32.8339 10.5432 31.8692 11.7113C31.2871 12.4149 30.1628 13.1905 29.1433 13.1905Z" fill="#DCD6D6"/>
<path d="M34.0147 17.5492C33.0617 18.4608 31.9823 19.4944 31.9574 20.7562C31.9425 21.432 32.7045 22.2754 33.4435 23.0932L33.4526 23.1032L33.4528 23.1035C34.5804 24.3497 35.9839 25.9007 34.6883 27.3751C33.6505 28.5556 31.979 27.8739 30.6352 27.325C30.0081 27.0686 29.3578 26.8043 28.9337 26.7934C27.6095 26.7575 27.0455 27.6251 26.3927 28.6292L26.3907 28.6322C25.6772 29.7315 24.8656 30.9777 22.9679 30.8635C22.1221 30.8137 21.3309 30.3129 20.5646 29.8279L20.5579 29.8237C19.407 29.0966 18.8116 28.7949 18.3243 29.1748C16.6461 30.4867 15.1343 30.9621 13.9601 30.9636C13.338 30.9636 12.8125 30.8291 12.4033 30.6165C11.6166 30.2037 11.1908 29.4563 11.294 28.6635C11.4503 27.4564 12.6993 26.7356 13.8019 26.0992L13.802 26.0991L13.8098 26.0947C14.538 25.6736 15.3623 25.197 15.4054 24.7763C15.4719 24.1462 14.9846 23.8897 13.8586 23.4566L13.857 23.456C12.8827 23.0793 11.6731 22.6116 11.4836 21.3785C11.2591 19.9168 12.5376 19.1115 13.5654 18.4642L13.5659 18.4639L13.5701 18.4612C14.2621 18.0244 14.9149 17.6123 14.9896 17.1426C15.0361 16.8456 14.8598 16.4625 14.4657 16.0059C13.3979 14.7675 13.0004 13.5338 13.3729 12.6206C13.6041 12.0546 14.1181 11.6793 14.7833 11.5886C16.0623 11.4151 16.7259 12.2813 17.2581 12.9771L17.2593 12.9786C17.9024 13.8175 18.3666 14.4232 19.7197 13.9653C20.3683 13.7449 20.7059 13.3133 21.0619 12.8567L21.0644 12.8534C21.5262 12.2632 22.0503 11.5932 23.214 11.5198C24.6462 11.4278 25.5601 12.3913 26.3672 13.2421L26.3724 13.2476C27.4019 14.3344 28.0422 14.9238 29.2547 14.4188C33.589 12.6081 34.9794 13.5494 35.4218 14.2718C36.1667 15.4879 35.0733 16.5353 34.0158 17.5482L34.0147 17.5492Z" fill="#DCD6D6"/>
<path d="M19.061 30.8979C19.1642 30.9042 19.2656 30.9214 19.3637 30.9495C20.4032 31.2482 20.6677 32.5882 20.5895 33.3638C20.4864 34.3786 19.8461 35.0635 18.918 35.1542C18.8365 35.162 18.7567 35.1667 18.6802 35.1667C18.4856 35.1667 18.301 35.1417 18.1297 35.0932L18.1247 35.0916C17.471 34.904 16.7875 34.2613 17.007 33.0667C17.1767 32.1582 17.945 30.8385 19.061 30.8979Z" fill="#DCD6D6"/>
<path d="M20.4132 10.6035C20.1488 11.0351 19.6448 11.2915 19.0677 11.2915C18.5937 11.2915 18.1346 11.1101 17.8386 10.8037C17.5193 10.4737 17.4494 9.99058 17.6557 9.54494C17.8835 9.0524 18.4739 8.55204 19.1608 8.55204C19.2739 8.55204 19.387 8.56611 19.4935 8.59425C19.9326 8.70527 20.3167 9.03207 20.4947 9.44644C20.661 9.82796 20.6311 10.2501 20.4132 10.6035Z" fill="#DCD6D6"/>
</svg>
