<svg width="43" height="42" viewBox="0 0 43 42" fill="none" xmlns="http://www.w3.org/2000/svg">
<rect x="0.5" width="42" height="42" rx="21" fill="#5F425A"/>
<path d="M14.4167 10.3763C14.4167 10.7675 14.0995 11.0846 13.7083 11.0846C13.3171 11.0846 13 10.7675 13 10.3763C13 9.9851 13.3171 9.66797 13.7083 9.66797C14.0995 9.66797 14.4167 9.9851 14.4167 10.3763Z" fill="#F2F0F0"/>
<path d="M19.433 24.5972C19.7047 24.3158 20.1531 24.308 20.4346 24.5797C20.716 24.8515 20.7238 25.2999 20.4521 25.5813C20.1803 25.8627 19.7319 25.8706 19.4505 25.5988C19.1691 25.3271 19.1612 24.8786 19.433 24.5972Z" fill="#F2F0F0"/>
<path d="M25.8183 32.4365C25.5325 32.7037 25.0843 32.6887 24.8171 32.403C24.5499 32.1172 24.5649 31.669 24.8506 31.4018C25.1364 31.1346 25.5846 31.1496 25.8518 31.4353C26.119 31.7211 26.104 32.1693 25.8183 32.4365Z" fill="#F2F0F0"/>
<path d="M13.5788 23.9839C13.2592 23.7583 13.1829 23.3163 13.4085 22.9967C13.634 22.6771 14.076 22.6008 14.3956 22.8264C14.7153 23.0519 14.7915 23.4939 14.566 23.8135C14.3404 24.1331 13.8985 24.2094 13.5788 23.9839Z" fill="#F2F0F0"/>
<path d="M15.8486 25.6887C16.1563 25.9302 16.2099 26.3755 15.9684 26.6832C15.7268 26.9909 15.2816 27.0446 14.9738 26.803C14.6661 26.5615 14.6125 26.1162 14.854 25.8085C15.0956 25.5007 15.5409 25.4471 15.8486 25.6887Z" fill="#F2F0F0"/>
<path d="M17.25 14.6263C17.25 15.0175 16.9329 15.3346 16.5417 15.3346C16.1505 15.3346 15.8333 15.0175 15.8333 14.6263C15.8333 14.2351 16.1505 13.918 16.5417 13.918C16.9329 13.918 17.25 14.2351 17.25 14.6263Z" fill="#F2F0F0"/>
<path d="M20.382 21.575C20.6538 21.2936 21.1022 21.2857 21.3836 21.5575C21.665 21.8292 21.6729 22.2776 21.4011 22.559C21.1294 22.8405 20.681 22.8483 20.3995 22.5766C20.1181 22.3048 20.1103 21.8564 20.382 21.575Z" fill="#F2F0F0"/>
<path d="M18.1267 27.3435C17.841 27.6107 17.3928 27.5956 17.1256 27.3099C16.8584 27.0242 16.8734 26.5759 17.1591 26.3087C17.4448 26.0415 17.8931 26.0566 18.1603 26.3423C18.4275 26.628 18.4125 27.0763 18.1267 27.3435Z" fill="#F2F0F0"/>
<path d="M15.9537 24.1359C15.6341 23.9104 15.5578 23.4684 15.7834 23.1488C16.0089 22.8292 16.4509 22.7529 16.7705 22.9785C17.0902 23.204 17.1664 23.646 16.9409 23.9656C16.7153 24.2852 16.2733 24.3615 15.9537 24.1359Z" fill="#F2F0F0"/>
<path d="M22.6798 25.0114C22.9875 25.253 23.0412 25.6983 22.7996 26.006C22.5581 26.3137 22.1128 26.3674 21.8051 26.1258C21.4973 25.8843 21.4437 25.439 21.6853 25.1313C21.9268 24.8235 22.3721 24.7699 22.6798 25.0114Z" fill="#F2F0F0"/>
<path d="M13 16.043C13 16.4342 12.6829 16.7513 12.2917 16.7513C11.9005 16.7513 11.5833 16.4342 11.5833 16.043C11.5833 15.6518 11.9005 15.3346 12.2917 15.3346C12.6829 15.3346 13 15.6518 13 16.043Z" fill="#F2F0F0"/>
<path d="M23.4087 22.9275C23.6804 22.6461 24.1289 22.6383 24.4103 22.91C24.6917 23.1818 24.6995 23.6302 24.4278 23.9116C24.1561 24.193 23.7076 24.2008 23.4262 23.9291C23.1448 23.6574 23.137 23.2089 23.4087 22.9275Z" fill="#F2F0F0"/>
<path d="M15.2725 20.1874C14.9529 19.9618 14.8766 19.5199 15.1022 19.2002C15.3277 18.8806 15.7697 18.8043 16.0893 19.0299C16.409 19.2554 16.4852 19.6974 16.2597 20.017C16.0341 20.3367 15.5922 20.4129 15.2725 20.1874Z" fill="#F2F0F0"/>
<path d="M21.5152 27.1053C21.823 27.3469 21.8766 27.7921 21.6351 28.0999C21.3935 28.4076 20.9482 28.4612 20.6405 28.2197C20.3328 27.9781 20.2791 27.5329 20.5207 27.2251C20.7623 26.9174 21.2075 26.8638 21.5152 27.1053Z" fill="#F2F0F0"/>
<path d="M22.4945 23.1476C22.8023 23.3892 22.8559 23.8344 22.6144 24.1421C22.3728 24.4499 21.9275 24.5035 21.6198 24.262C21.3121 24.0204 21.2584 23.5751 21.5 23.2674C21.7416 22.9597 22.1868 22.906 22.4945 23.1476Z" fill="#F2F0F0"/>
<path d="M10.1667 18.8763C10.1667 19.2675 9.84953 19.5846 9.45833 19.5846C9.06713 19.5846 8.75 19.2675 8.75 18.8763C8.75 18.4851 9.06713 18.168 9.45833 18.168C9.84953 18.168 10.1667 18.4851 10.1667 18.8763Z" fill="#F2F0F0"/>
<path d="M28.1913 30.5592C28.2112 30.1685 28.5441 29.8679 28.9348 29.8879C29.3255 29.9078 29.6261 30.2407 29.6061 30.6314C29.5862 31.0221 29.2533 31.3226 28.8626 31.3027C28.4719 31.2828 28.1714 30.9499 28.1913 30.5592Z" fill="#F2F0F0"/>
<path d="M25.7769 20.6986C25.7968 20.308 26.1297 20.0074 26.5204 20.0273C26.9111 20.0473 27.2116 20.3801 27.1917 20.7708C27.1718 21.1615 26.8389 21.4621 26.4482 21.4422C26.0575 21.4222 25.7569 21.0893 25.7769 20.6986Z" fill="#F2F0F0"/>
<path d="M28.3947 21.4349C28.6664 21.1535 29.1149 21.1456 29.3963 21.4174C29.6777 21.6891 29.6855 22.1375 29.4138 22.419C29.1421 22.7004 28.6936 22.7082 28.4122 22.4365C28.1308 22.1647 28.123 21.7163 28.3947 21.4349Z" fill="#F2F0F0"/>
<path d="M10.1173 27.075C9.83159 27.3422 9.38335 27.3272 9.11615 27.0414C8.84895 26.7557 8.86397 26.3075 9.1497 26.0403C9.43543 25.7731 9.88367 25.7881 10.1509 26.0738C10.4181 26.3595 10.4031 26.8078 10.1173 27.075Z" fill="#F2F0F0"/>
<path d="M21.5 10.3763C21.5 10.7675 21.1829 11.0846 20.7917 11.0846C20.4005 11.0846 20.0833 10.7675 20.0833 10.3763C20.0833 9.9851 20.4005 9.66797 20.7917 9.66797C21.1829 9.66797 21.5 9.9851 21.5 10.3763Z" fill="#F2F0F0"/>
<path d="M12.0754 18.6775C12.3471 18.3961 12.7955 18.3883 13.0769 18.66C13.3584 18.9318 13.3662 19.3802 13.0945 19.6616C12.8227 19.943 12.3743 19.9508 12.0929 19.6791C11.8115 19.4074 11.8036 18.9589 12.0754 18.6775Z" fill="#F2F0F0"/>
<path d="M24.0667 29.5471C23.7809 29.8143 23.3327 29.7992 23.0655 29.5135C22.7983 29.2278 22.8133 28.7795 23.0991 28.5123C23.3848 28.2451 23.833 28.2602 24.1002 28.5459C24.3674 28.8316 24.3524 29.2799 24.0667 29.5471Z" fill="#F2F0F0"/>
<path d="M22.9849 16.8532C22.6992 17.1204 22.2509 17.1054 21.9837 16.8196C21.7165 16.5339 21.7316 16.0856 22.0173 15.8184C22.303 15.5512 22.7513 15.5663 23.0185 15.852C23.2857 16.1377 23.2706 16.586 22.9849 16.8532Z" fill="#F2F0F0"/>
<path d="M17.8288 29.6505C17.5092 29.425 17.4329 28.983 17.6585 28.6634C17.884 28.3437 18.326 28.2675 18.6456 28.493C18.9653 28.7186 19.0415 29.1606 18.816 29.4802C18.5904 29.7998 18.1485 29.8761 17.8288 29.6505Z" fill="#F2F0F0"/>
<path d="M23.9499 18.8045C24.2576 19.0461 24.3113 19.4914 24.0697 19.7991C23.8282 20.1068 23.3829 20.1604 23.0752 19.9189C22.7675 19.6773 22.7138 19.2321 22.9554 18.9243C23.1969 18.6166 23.6422 18.563 23.9499 18.8045Z" fill="#F2F0F0"/>
<path d="M22.9167 13.2096C22.9167 13.6008 22.5995 13.918 22.2083 13.918C21.8171 13.918 21.5 13.6008 21.5 13.2096C21.5 12.8184 21.8171 12.5013 22.2083 12.5013C22.5995 12.5013 22.9167 12.8184 22.9167 13.2096Z" fill="#F2F0F0"/>
<path d="M15.2866 16.6546C15.5583 16.3732 16.0067 16.3654 16.2881 16.6371C16.5696 16.9089 16.5774 17.3573 16.3057 17.6387C16.0339 17.9201 15.5855 17.928 15.3041 17.6562C15.0227 17.3845 15.0148 16.9361 15.2866 16.6546Z" fill="#F2F0F0"/>
<path d="M27.1819 17.1887C27.4896 17.4302 27.5433 17.8755 27.3017 18.1832C27.0602 18.4909 26.6149 18.5446 26.3072 18.303C25.9995 18.0615 25.9458 17.6162 26.1874 17.3085C26.4289 17.0007 26.8742 16.9471 27.1819 17.1887Z" fill="#F2F0F0"/>
<path d="M31.4319 25.1063C31.7396 25.3479 31.7933 25.7932 31.5517 26.1009C31.3102 26.4086 30.8649 26.4622 30.5572 26.2207C30.2495 25.9791 30.1958 25.5339 30.4374 25.2262C30.6789 24.9184 31.1242 24.8648 31.4319 25.1063Z" fill="#F2F0F0"/>
<path d="M20.0833 14.6263C20.0833 15.0175 19.7662 15.3346 19.375 15.3346C18.9838 15.3346 18.6667 15.0175 18.6667 14.6263C18.6667 14.2351 18.9838 13.918 19.375 13.918C19.7662 13.918 20.0833 14.2351 20.0833 14.6263Z" fill="#F2F0F0"/>
<path d="M12.2834 25.3595C12.67 25.2998 13.0319 25.5647 13.0917 25.9513C13.1514 26.3379 12.8865 26.6998 12.4999 26.7596C12.1133 26.8193 11.7514 26.5544 11.6916 26.1678C11.6319 25.7812 11.8968 25.4193 12.2834 25.3595Z" fill="#F2F0F0"/>
<path d="M28.0161 23.8996C27.6269 23.9396 27.2791 23.6566 27.2391 23.2674C27.1991 22.8783 27.4821 22.5304 27.8713 22.4904C28.2604 22.4504 28.6083 22.7334 28.6483 23.1226C28.6883 23.5117 28.4052 23.8596 28.0161 23.8996Z" fill="#F2F0F0"/>
<path d="M19.2929 16.5846C19.5646 16.3032 20.0131 16.2953 20.2945 16.5671C20.5759 16.8388 20.5837 17.2873 20.312 17.5687C20.0402 17.8501 19.5918 17.8579 19.3104 17.5862C19.029 17.3144 19.0212 16.866 19.2929 16.5846Z" fill="#F2F0F0"/>
<path d="M25.7652 25.6887C26.073 25.9302 26.1266 26.3755 25.8851 26.6832C25.6435 26.9909 25.1982 27.0446 24.8905 26.803C24.5828 26.5615 24.5291 26.1162 24.7707 25.8085C25.0123 25.5007 25.4575 25.4471 25.7652 25.6887Z" fill="#F2F0F0"/>
<path d="M18.6667 18.8763C18.6667 19.2675 18.3495 19.5846 17.9583 19.5846C17.5671 19.5846 17.25 19.2675 17.25 18.8763C17.25 18.4851 17.5671 18.168 17.9583 18.168C18.3495 18.168 18.6667 18.4851 18.6667 18.8763Z" fill="#F2F0F0"/>
<path d="M21.1171 30.1982C21.1371 29.8075 21.47 29.5069 21.8607 29.5269C22.2514 29.5468 22.5519 29.8797 22.532 30.2704C22.512 30.6611 22.1792 30.9616 21.7885 30.9417C21.3978 30.9218 21.0972 30.5889 21.1171 30.1982Z" fill="#F2F0F0"/>
<path d="M17.286 21.7087C17.306 21.318 17.6389 21.0175 18.0295 21.0374C18.4202 21.0573 18.7208 21.3902 18.7009 21.7809C18.6809 22.1716 18.348 22.4721 17.9574 22.4522C17.5667 22.4323 17.2661 22.0994 17.286 21.7087Z" fill="#F2F0F0"/>
<path d="M17.9501 31.0262C18.3367 30.9664 18.6986 31.2314 18.7583 31.618C18.8181 32.0046 18.5531 32.3665 18.1665 32.4262C17.7799 32.486 17.4181 32.2211 17.3583 31.8344C17.2985 31.4478 17.5635 31.086 17.9501 31.0262Z" fill="#F2F0F0"/>
<path d="M25.0441 21.6199C24.655 21.6599 24.3071 21.3769 24.2671 20.9877C24.2271 20.5986 24.5102 20.2507 24.8993 20.2107C25.2885 20.1707 25.6364 20.4538 25.6763 20.8429C25.7163 21.2321 25.4333 21.5799 25.0441 21.6199Z" fill="#F2F0F0"/>
<path d="M23.2992 16.5145C23.571 16.2331 24.0194 16.2253 24.3008 16.497C24.5822 16.7687 24.5901 17.2172 24.3183 17.4986C24.0466 17.78 23.5982 17.7878 23.3167 17.5161C23.0353 17.2444 23.0275 16.7959 23.2992 16.5145Z" fill="#F2F0F0"/>
<path d="M10.507 22.0262C10.1874 21.8006 10.1111 21.3586 10.3367 21.039C10.5622 20.7194 11.0042 20.6431 11.3238 20.8687C11.6435 21.0942 11.7197 21.5362 11.4942 21.8558C11.2686 22.1755 10.8266 22.2517 10.507 22.0262Z" fill="#F2F0F0"/>
<path d="M28.0119 27.3961C28.3196 27.6376 28.3733 28.0829 28.1317 28.3906C27.8902 28.6983 27.4449 28.752 27.1372 28.5104C26.8294 28.2689 26.7758 27.8236 27.0174 27.5159C27.2589 27.2082 27.7042 27.1545 28.0119 27.3961Z" fill="#F2F0F0"/>
<path d="M28.5833 10.3763C28.5833 10.7675 28.2662 11.0846 27.875 11.0846C27.4838 11.0846 27.1667 10.7675 27.1667 10.3763C27.1667 9.9851 27.4838 9.66797 27.875 9.66797C28.2662 9.66797 28.5833 9.9851 28.5833 10.3763Z" fill="#F2F0F0"/>
<path d="M9.24203 14.7566C9.51377 14.4752 9.9622 14.4673 10.2436 14.7391C10.525 15.0108 10.5329 15.4592 10.2611 15.7406C9.98938 16.0221 9.54096 16.0299 9.25955 15.7582C8.97813 15.4864 8.97029 15.038 9.24203 14.7566Z" fill="#F2F0F0"/>
<path d="M30 13.2096C30 13.6008 29.6829 13.918 29.2917 13.918C28.9005 13.918 28.5833 13.6008 28.5833 13.2096C28.5833 12.8184 28.9005 12.5013 29.2917 12.5013C29.6829 12.5013 30 12.8184 30 13.2096Z" fill="#F2F0F0"/>
<path d="M34.3785 18.8763C34.3785 19.2675 34.0614 19.5846 33.6702 19.5846C33.279 19.5846 32.9618 19.2675 32.9618 18.8763C32.9618 18.4851 33.279 18.168 33.6702 18.168C34.0614 18.168 34.3785 18.4851 34.3785 18.8763Z" fill="#F2F0F0"/>
<path d="M27.1667 16.043C27.1667 16.4342 26.8495 16.7513 26.4583 16.7513C26.0671 16.7513 25.75 16.4342 25.75 16.043C25.75 15.6518 26.0671 15.3346 26.4583 15.3346C26.8495 15.3346 27.1667 15.6518 27.1667 16.043Z" fill="#F2F0F0"/>
<path d="M31.5452 21.7096C31.5452 22.1008 31.228 22.418 30.8368 22.418C30.4456 22.418 30.1285 22.1008 30.1285 21.7096C30.1285 21.3184 30.4456 21.0013 30.8368 21.0013C31.228 21.0013 31.5452 21.3184 31.5452 21.7096Z" fill="#F2F0F0"/>
<path d="M29.4328 19.6496C29.0436 19.6896 28.6957 19.4066 28.6557 19.0174C28.6157 18.6283 28.8988 18.2804 29.2879 18.2404C29.6771 18.2004 30.025 18.4834 30.065 18.8726C30.105 19.2617 29.8219 19.6096 29.4328 19.6496Z" fill="#F2F0F0"/>
<path d="M30.8494 16.8163C30.4603 16.8563 30.1124 16.5732 30.0724 16.1841C30.0324 15.7949 30.3155 15.447 30.7046 15.407C31.0938 15.3671 31.4417 15.6501 31.4816 16.0393C31.5216 16.4284 31.2386 16.7763 30.8494 16.8163Z" fill="#F2F0F0"/>
<path d="M14.1974 11.6643C14.4692 11.3829 14.9176 11.375 15.199 11.6468C15.4804 11.9185 15.4883 12.3669 15.2165 12.6483C14.9448 12.9298 14.4964 12.9376 14.2149 12.6659C13.9335 12.3941 13.9257 11.9457 14.1974 11.6643Z" fill="#F2F0F0"/>
<path d="M25.75 13.2096C25.75 13.6008 25.4329 13.918 25.0417 13.918C24.6505 13.918 24.3333 13.6008 24.3333 13.2096C24.3333 12.8184 24.6505 12.5013 25.0417 12.5013C25.4329 12.5013 25.75 12.8184 25.75 13.2096Z" fill="#F2F0F0"/>
<path d="M14.043 29.8372C14.063 29.4466 14.3958 29.146 14.7865 29.1659C15.1772 29.1859 15.4778 29.5187 15.4578 29.9094C15.4379 30.3001 15.105 30.6007 14.7143 30.5808C14.3236 30.5608 14.0231 30.2279 14.043 29.8372Z" fill="#F2F0F0"/>
<path d="M12.6831 20.6434C13.0697 20.5836 13.4315 20.8485 13.4913 21.2351C13.5511 21.6218 13.2861 21.9836 12.8995 22.0434C12.5129 22.1032 12.151 21.8382 12.0913 21.4516C12.0315 21.065 12.2965 20.7031 12.6831 20.6434Z" fill="#F2F0F0"/>
<path d="M25.7682 28.6662C25.379 28.7062 25.0312 28.4231 24.9912 28.034C24.9512 27.6448 25.2342 27.2969 25.6234 27.2569C26.0125 27.2169 26.3604 27.5 26.4004 27.8891C26.4404 28.2783 26.1574 28.6262 25.7682 28.6662Z" fill="#F2F0F0"/>
<path d="M18.2038 11.5942C18.4755 11.3128 18.9239 11.3049 19.2053 11.5767C19.4868 11.8484 19.4946 12.2968 19.2229 12.5783C18.9511 12.8597 18.5027 12.8675 18.2213 12.5958C17.9399 12.324 17.932 11.8756 18.2038 11.5942Z" fill="#F2F0F0"/>
<path d="M32.5463 28.2708C32.854 28.5124 32.9076 28.9576 32.6661 29.2653C32.4245 29.5731 31.9792 29.6267 31.6715 29.3852C31.3638 29.1436 31.3102 28.6983 31.5517 28.3906C31.7933 28.0829 32.2385 28.0292 32.5463 28.2708Z" fill="#F2F0F0"/>
<path d="M34.1801 22.4904C34.4878 22.7319 34.5415 23.1772 34.2999 23.4849C34.0584 23.7926 33.6131 23.8463 33.3054 23.6047C32.9977 23.3632 32.944 22.9179 33.1856 22.6102C33.4271 22.3025 33.8724 22.2488 34.1801 22.4904Z" fill="#F2F0F0"/>
<path d="M21.8334 17.6902C22.1411 17.9317 22.1948 18.377 21.9532 18.6847C21.7117 18.9924 21.2664 19.0461 20.9587 18.8045C20.6509 18.563 20.5973 18.1177 20.8389 17.81C21.0804 17.5023 21.5257 17.4486 21.8334 17.6902Z" fill="#F2F0F0"/>
<path d="M23.2029 20.8679C23.5106 21.1095 23.5642 21.5547 23.3227 21.8625C23.0811 22.1702 22.6359 22.2238 22.3281 21.9823C22.0204 21.7407 21.9668 21.2954 22.2083 20.9877C22.4499 20.68 22.8952 20.6264 23.2029 20.8679Z" fill="#F2F0F0"/>
<path d="M19.1906 22.819C19.4983 23.0605 19.552 23.5058 19.3104 23.8135C19.0689 24.1212 18.6236 24.1749 18.3159 23.9333C18.0081 23.6918 17.9545 23.2465 18.1961 22.9388C18.4376 22.6311 18.8829 22.5774 19.1906 22.819Z" fill="#F2F0F0"/>
<path d="M22.4945 23.1476C22.8023 23.3892 22.8559 23.8344 22.6144 24.1421C22.3728 24.4499 21.9275 24.5035 21.6198 24.262C21.3121 24.0204 21.2584 23.5751 21.5 23.2674C21.7416 22.9597 22.1868 22.906 22.4945 23.1476Z" fill="#F2F0F0"/>
<path d="M20.8389 19.529C21.1466 19.7706 21.2003 20.2158 20.9587 20.5235C20.7172 20.8313 20.2719 20.8849 19.9642 20.6434C19.6565 20.4018 19.6028 19.9565 19.8444 19.6488C20.0859 19.3411 20.5312 19.2874 20.8389 19.529Z" fill="#F2F0F0"/>
<path d="M22.3747 19.2161C22.6825 19.4577 22.7361 19.903 22.4945 20.2107C22.253 20.5184 21.8077 20.5721 21.5 20.3305C21.1923 20.0889 21.1386 19.6437 21.3802 19.336C21.6217 19.0282 22.067 18.9746 22.3747 19.2161Z" fill="#F2F0F0"/>
<path d="M19.3132 19.7041C19.6209 19.9457 19.6745 20.3909 19.433 20.6986C19.1914 21.0064 18.7461 21.06 18.4384 20.8185C18.1307 20.5769 18.0771 20.1316 18.3186 19.8239C18.5602 19.5162 19.0054 19.4625 19.3132 19.7041Z" fill="#F2F0F0"/>
<path d="M20.0976 18.1018C20.4053 18.3433 20.459 18.7886 20.2174 19.0963C19.9759 19.4041 19.5306 19.4577 19.2229 19.2161C18.9151 18.9746 18.8615 18.5293 19.103 18.2216C19.3446 17.9139 19.7899 17.8602 20.0976 18.1018Z" fill="#F2F0F0"/>
<path d="M17.6585 19.7991C17.9662 20.0406 18.0198 20.4859 17.7783 20.7936C17.5367 21.1013 17.0915 21.155 16.7838 20.9134C16.476 20.6719 16.4224 20.2266 16.6639 19.9189C16.9055 19.6112 17.3508 19.5575 17.6585 19.7991Z" fill="#F2F0F0"/>
<path d="M25.2137 23.8362C25.2337 23.4455 25.5666 23.145 25.9572 23.1649C26.3479 23.1848 26.6485 23.5177 26.6286 23.9084C26.6086 24.2991 26.2757 24.5997 25.8851 24.5797C25.4944 24.5598 25.1938 24.2269 25.2137 23.8362Z" fill="#F2F0F0"/>
</svg>
