<svg width="43" height="42" viewBox="0 0 43 42" fill="none" xmlns="http://www.w3.org/2000/svg">
<rect x="0.5" width="42" height="42" rx="21" fill="#5F425A"/>
<path d="M16.5328 32.332H11.3531C10.6985 32.332 10.1665 31.7723 10.1665 31.084V16.9951C10.1665 16.3068 10.6985 15.7471 11.3531 15.7471H16.5328C17.1874 15.7471 17.7208 16.3068 17.7208 16.9951V24.0395V31.084C17.7208 31.7723 17.1874 32.332 16.5328 32.332Z" fill="#DCD6D6"/>
<path d="M29.5467 31.9185H19.4061C18.757 31.9185 18.2292 31.3631 18.2292 30.6808V17.0069C18.2292 16.7898 18.2835 16.5771 18.3852 16.3895L20.6247 12.2968C20.654 12.2437 20.6721 12.1846 20.6763 12.1226L20.8977 9.09476C20.9061 7.84524 21.874 6.83203 23.0634 6.83203C24.2584 6.83203 25.2306 7.8541 25.2306 9.11101V11.8552C25.2306 12.2496 25.1902 12.6454 25.1108 13.0309L24.4618 16.1636H33.5008C34.6944 16.1636 35.6665 17.1856 35.6665 18.4425C35.6665 19.5473 34.9158 20.4719 33.9214 20.6787C33.9632 20.7186 34.0049 20.7614 34.0439 20.8042C34.4423 21.237 34.6414 21.7392 34.6247 22.2576C34.5885 23.3372 33.796 24.2382 32.7905 24.4199C33.1484 24.8556 33.3336 25.408 33.3141 25.9899C33.2751 27.1493 32.3643 28.1034 31.2529 28.1802C31.5969 28.6115 31.7737 29.1536 31.7542 29.7222C31.7139 30.9333 30.7222 31.9185 29.5467 31.9185Z" fill="#DCD6D6"/>
</svg>
