<svg width="16" height="19" viewBox="0 0 16 19" fill="none" xmlns="http://www.w3.org/2000/svg">
<path d="M6.8 0.901406L0.8 5.40141C0.3 5.78141 0 6.37141 0 7.00141V16.0014C0 17.1014 0.9 18.0014 2 18.0014H14C15.1 18.0014 16 17.1014 16 16.0014V7.00141C16 6.37141 15.7 5.78141 15.2 5.40141L9.2 0.901406C8.49 0.371406 7.51 0.371406 6.8 0.901406ZM5.75 9.50141C6.44 9.50141 7 10.0614 7 10.7514C7 11.4414 6.44 12.0014 5.75 12.0014C5.06 12.0014 4.5 11.4414 4.5 10.7514C4.5 10.0614 5.06 9.50141 5.75 9.50141ZM12.5 15.0014C12.22 15.0014 12 14.7814 12 14.5014V13.5014H4V14.5014C4 14.7814 3.78 15.0014 3.5 15.0014C3.22 15.0014 3 14.7814 3 14.5014V8.50141C3 8.22141 3.22 8.00141 3.5 8.00141C3.78 8.00141 4 8.22141 4 8.50141V12.5014H7.5V9.50141C7.5 9.22141 7.72 9.00141 8 9.00141H11C12.1 9.00141 13 9.90141 13 11.0014V14.5014C13 14.7814 12.78 15.0014 12.5 15.0014Z" fill="#F2F0F0"/>
</svg>
