<svg width="48" height="38" viewBox="0 0 48 38" fill="none" xmlns="http://www.w3.org/2000/svg">
<path fill-rule="evenodd" clip-rule="evenodd" d="M9.96745 6.91615C9.96745 6.05219 9.24245 5.34531 8.35634 5.34531C7.47022 5.34531 6.74523 6.05219 6.74523 6.91615V8.48698C6.74523 9.35094 7.47022 10.0578 8.35634 10.0578C9.24245 10.0578 9.96745 9.35094 9.96745 8.48698V6.91615ZM9.96745 17.912C9.96745 17.048 9.24245 16.3411 8.35634 16.3411C7.47022 16.3411 6.74523 17.048 6.74523 17.912V22.6245C6.74523 23.4884 7.47022 24.1953 8.35634 24.1953C9.24245 24.1953 9.96745 23.4884 9.96745 22.6245V17.912Z" fill="#CBC2C2"/>
<path fill-rule="evenodd" clip-rule="evenodd" d="M22.8563 0.648521L3.523 0.632812C1.75078 0.632812 0.300781 2.03085 0.300781 3.77448V28.9078C0.300781 30.6357 1.75078 32.0495 3.523 32.0495H12.8452V28.9078H5.13411C4.248 28.9078 3.523 28.2009 3.523 27.337V16.3097C3.523 15.4458 4.248 14.7389 5.13411 14.7389H21.2452C22.0131 14.7389 22.6599 15.2697 22.8189 15.9735H26.0786V3.77448C26.0786 2.03085 24.6286 0.648521 22.8563 0.648521ZM5.13411 11.6286H21.2452C22.1313 11.6286 22.8563 10.9218 22.8563 10.0578V5.34531C22.8563 4.48136 22.1313 3.77448 21.2452 3.77448H5.13411C4.248 3.77448 3.523 4.48136 3.523 5.34531V10.0578C3.523 10.9218 4.248 11.6286 5.13411 11.6286Z" fill="#CBC2C2"/>
<path d="M44.2439 23.8328C42.516 23.8328 41.1022 25.2466 41.1022 26.9745V31.687H19.1105V26.9745C19.1105 25.2466 17.6968 23.8328 15.9689 23.8328C14.241 23.8328 12.8272 25.2466 12.8272 26.9745V34.8287C12.8272 36.5566 14.241 37.9703 15.9689 37.9703H44.2439C45.9718 37.9703 47.3855 36.5566 47.3855 34.8287V26.9745C47.3855 25.2466 45.9718 23.8328 44.2439 23.8328ZM39.5314 15.9786H20.6814C18.9535 15.9786 17.5397 17.3924 17.5397 19.1203V22.4976C19.3619 23.1416 20.6814 24.8696 20.6814 26.9274V30.1162H39.5314V26.9274C39.5314 24.8853 40.8509 23.1574 42.673 22.4976V19.1203C42.673 17.3924 41.2593 15.9786 39.5314 15.9786Z" fill="#CBC2C2"/>
</svg>
