<svg width="43" height="42" viewBox="0 0 43 42" fill="none" xmlns="http://www.w3.org/2000/svg">
<rect x="0.5" width="42" height="42" rx="21" fill="#5F425A"/>
<g clip-path="url(#clip0)">
<path d="M24.1503 9.89871C24.1117 9.79355 24.1484 9.60178 24.2605 9.33372C24.3725 9.0636 24.388 8.89039 24.303 8.81616L24.2411 8.76461L24.0672 8.73986L23.6247 8.83884C23.4295 8.91101 23.2228 9.02854 23.0141 9.20381L23.0605 9.24299C22.987 9.52755 22.8634 9.73375 22.6856 9.85953C22.5465 9.93377 22.2469 10.041 21.7812 10.1833C21.3233 10.3255 21.0218 10.4493 20.875 10.5627C20.7938 10.8039 20.6547 10.9978 20.4556 11.14C20.218 11.2906 19.9455 11.4287 19.6479 11.5669L18.9677 11.9257C18.7107 12.0246 18.5078 12.1257 18.3609 12.2308C18.2315 12.3257 18.1213 12.4721 18.0305 12.6783C17.9358 12.8907 17.7252 13.0928 17.3967 13.2845C17.2421 13.3464 17.1262 13.3546 17.0566 13.2928C16.873 13.4474 16.6914 13.666 16.5059 13.932C16.3242 14.2042 16.1329 14.4145 15.9339 14.5547L15.5725 14.7795C14.958 14.963 14.6025 15.0125 14.502 14.9362L13.0566 16.394C12.8962 16.46 12.7822 16.46 12.7107 16.3982L11.5861 17.8292L10.245 18.3406L10.0769 19.3468L7.5223 19.8994L7.76771 19.8726C7.7967 19.9778 7.60733 20.2954 7.188 20.8356L6.55805 21.6913C6.33196 21.8996 6.17931 22.0254 6.09428 22.0604C6.04984 22.0749 6.01505 22.0893 5.98607 22.0934C6.00153 22.0955 6.01119 22.1037 6.02472 22.1079L6.71264 22.0934C6.36095 22.38 6.13486 22.6027 6.01892 22.7533C5.90104 22.91 5.89525 23.0296 5.9938 23.1079L6.25853 23.211L6.61216 23.3265C6.64501 23.4379 6.65467 23.5348 6.62761 23.6255C6.54066 23.7843 6.37254 23.9863 6.10974 24.2338C6.59863 23.9843 6.93679 23.8028 7.11457 23.6997C7.29042 23.6008 7.57254 23.4152 7.96288 23.1636L9.64211 22.0151L10.8904 21.083L11.6653 20.4562L12.8305 19.3468L14.2837 18.8066L14.844 18.4066C14.9233 18.3138 14.9349 18.2437 14.8827 18.1818C14.8344 18.122 14.7687 18.056 14.6837 17.9921L14.9716 17.3673C15.0798 17.1467 15.2556 16.9508 15.4856 16.7569L15.8044 16.6745H15.9397L16.6469 15.928C16.9252 15.8909 17.1513 15.8105 17.3233 15.6826L17.8527 15.1939L18.2894 14.7486C18.5465 14.5774 18.7609 14.5032 18.9329 14.5279L22.0692 12.0391C23.1436 11.1627 23.9957 10.4431 24.6199 9.88428C24.3822 9.9647 24.2199 9.95851 24.1503 9.89871ZM7.30781 23.2234C7.15708 23.2894 7.11264 23.2502 7.188 23.1182L7.53583 22.4831C7.7909 22.3553 8.00346 22.2522 8.16771 22.1986C8.33389 22.145 8.44404 22.1326 8.49815 22.18C8.5851 22.2543 8.52133 22.4481 8.29718 22.7656L7.30781 23.2234ZM10.1155 20.6397L10.1213 20.3036C10.3223 20.1923 10.4885 20.1386 10.6392 20.1263C10.7841 20.1098 10.8788 20.1634 10.9155 20.2665C10.7474 20.3902 10.4788 20.5139 10.1155 20.6397ZM12.1967 19.6664C12.1503 19.7159 12.1039 19.7654 12.0634 19.819L12.4653 19.0581C12.5967 18.8623 12.701 18.7468 12.7609 18.6994C12.8228 18.654 12.875 18.6272 12.9213 18.6231L12.6102 19.1757C12.4866 19.3283 12.3513 19.4953 12.1967 19.6664ZM13.6518 18.8788L13.4006 18.6705L13.7948 18.5365L13.8895 18.6189L13.6518 18.8788ZM25.9687 8.34396L26.875 7.78722C27.0701 7.50884 27.0991 7.381 26.9658 7.39131C26.7339 7.20161 26.1948 7.35213 25.3523 7.84701L25.9532 7.93774C25.7909 8.17281 25.6382 8.36252 25.4991 8.49242C25.3542 8.62645 25.0721 8.84709 24.6353 9.15639L24.9175 9.10484C24.9851 9.08216 25.0837 9.06154 25.2131 9.05741L25.0972 9.2533L25.4392 9.24299C25.6981 9.15433 25.9416 9.00792 26.1735 8.8141L25.9667 8.64501C25.9184 8.52335 25.9165 8.42438 25.9687 8.34396ZM5.94742 22.112C5.95708 22.1202 5.98027 22.1223 6.00733 22.1202C5.97448 22.1079 5.94162 22.0975 5.9165 22.0749L5.94742 22.112ZM29.2614 5.41797L28.9561 5.69015C28.8904 5.78707 28.9001 5.83862 28.9986 5.84274L29.1513 5.61798C29.1938 5.57468 29.2324 5.50045 29.2614 5.41797ZM38.2701 8.01197L38.4189 7.7934C38.4556 7.74391 38.4904 7.67587 38.5233 7.58926L38.2218 7.85526C38.158 7.95011 38.1677 8.00373 38.2701 8.01197ZM25.0875 18.8623H25.2228L25.93 18.1158C26.2083 18.0787 26.4344 17.9983 26.6122 17.8642L27.1358 17.3817L27.5725 16.9363C27.8295 16.7652 28.044 16.691 28.216 16.7157L31.3523 14.2269C32.4305 13.3443 33.2788 12.6309 33.903 12.0721C33.6363 12.1257 33.4779 12.1257 33.4025 12.0597C33.3658 11.9545 33.4006 11.7648 33.5126 11.4947C33.6247 11.2246 33.6402 11.0514 33.5551 10.9771L33.4952 10.9256L33.3213 10.9008L32.8827 10.9957C32.6856 11.0658 32.4808 11.1833 32.2721 11.3607L32.3165 11.3999C32.2431 11.6844 32.1213 11.8906 31.9436 12.0143C31.8025 12.0906 31.5049 12.1978 31.0411 12.3339C30.5851 12.4762 30.2817 12.5979 30.1368 12.7134C30.0537 12.9546 29.9165 13.1484 29.7175 13.2887C29.4779 13.4392 29.2054 13.5794 28.9097 13.7175L28.2295 14.0763C27.9745 14.1691 27.7677 14.2764 27.6228 14.3815C27.4933 14.4764 27.3812 14.6207 27.2923 14.829C27.1977 15.0414 26.987 15.2434 26.6643 15.4393C26.5078 15.5012 26.3977 15.5032 26.3184 15.4434C26.1349 15.5981 25.9532 15.8146 25.7658 16.0827C25.5841 16.3549 25.3928 16.5652 25.1938 16.7054L24.8324 16.9302C24.218 17.1137 23.8585 17.1693 23.7638 17.0869L22.3184 18.5426C22.1619 18.6066 22.0421 18.6086 21.9725 18.5488L20.846 19.9778L19.5068 20.4912L19.3387 21.4975L16.7822 22.0501L17.0334 22.0171C17.0624 22.1223 16.8711 22.4398 16.4537 22.9801L15.8218 23.8379C15.5977 24.0461 15.4431 24.1719 15.3561 24.2111C15.3117 24.2255 15.275 24.24 15.2479 24.242C15.2614 24.2462 15.273 24.2544 15.2808 24.2544L15.9687 24.24C15.617 24.5266 15.3909 24.7493 15.275 24.8998C15.1571 25.0565 15.1513 25.1761 15.2498 25.2524L15.5146 25.3555L15.8682 25.4731C15.901 25.5823 15.9107 25.6813 15.8837 25.772C15.7967 25.9308 15.6286 26.1329 15.3658 26.3783C15.8547 26.1308 16.187 25.9556 16.3667 25.8504C16.5426 25.7514 16.8247 25.5658 17.2151 25.3143L18.8943 24.1657L20.1426 23.2337L20.9155 22.6089L22.0827 21.4996L23.5339 20.9573L24.0962 20.5593C24.1754 20.4665 24.187 20.3964 24.1329 20.3325C24.0865 20.2747 24.0151 20.2129 23.9358 20.1428L24.2237 19.518C24.332 19.2994 24.5059 19.1015 24.7378 18.9076L25.0875 18.8623ZM16.5716 25.3926C16.4209 25.4607 16.3803 25.4256 16.4498 25.2895L16.7996 24.6524C17.0585 24.5183 17.2653 24.4214 17.4315 24.3678C17.5977 24.3142 17.7059 24.3018 17.7619 24.3493C17.8469 24.4235 17.7832 24.6194 17.5609 24.9349L16.5716 25.3926ZM19.3793 22.8089L19.3832 22.4728C19.5803 22.3677 19.7503 22.3079 19.901 22.2955C20.0479 22.279 20.1407 22.3326 20.1793 22.4357C20.0112 22.5594 19.7407 22.6832 19.3793 22.8089ZM21.4508 21.8377C21.4044 21.8872 21.358 21.9367 21.3175 21.9903L21.7175 21.2294C21.8508 21.0315 21.9552 20.916 22.0151 20.8707C22.075 20.8253 22.1291 20.7985 22.1735 20.7944L21.8643 21.347C21.7445 21.5037 21.6093 21.6625 21.4508 21.8377ZM22.9155 21.048L22.6605 20.8459L23.0527 20.7119L23.1532 20.7902L22.9155 21.048ZM34.7667 10.6555C34.6257 10.7854 34.3397 11.0101 33.903 11.3215L34.1851 11.2699C34.2508 11.2473 34.3474 11.2308 34.4788 11.2205L34.3648 11.4163L34.7068 11.4081C34.9658 11.3194 35.2093 11.173 35.4392 10.9792L35.2344 10.8101C35.1803 10.6926 35.1803 10.5936 35.2286 10.5194L36.1349 9.96263C36.3281 9.68426 36.3571 9.55642 36.2295 9.5626C35.9977 9.37084 35.4585 9.52136 34.616 10.0183L35.2151 10.107C35.0547 10.342 34.8962 10.5276 34.7667 10.6555ZM15.2093 24.2812C15.2209 24.2895 15.244 24.2936 15.2711 24.2895C15.2382 24.2792 15.2035 24.2668 15.1783 24.2462L15.2093 24.2812ZM36.6199 17.5281L37.5262 16.9714C37.7213 16.693 37.7503 16.5672 37.617 16.5776C37.3851 16.3858 36.846 16.5363 36.0035 17.0333L36.6044 17.1219C36.4421 17.357 36.2894 17.5467 36.1503 17.6766C36.0073 17.8106 35.7233 18.0313 35.2866 18.3426L35.5687 18.2911C35.6363 18.2684 35.7349 18.2457 35.8643 18.2416L35.7503 18.4375L36.0904 18.4272C36.3494 18.3385 36.5928 18.1921 36.8247 17.9983L36.618 17.8292C36.5638 17.7034 36.5638 17.6044 36.6199 17.5281ZM39.8122 14.8022C39.8489 14.7547 39.8837 14.6867 39.9165 14.598L39.6112 14.8702C39.5455 14.9651 39.5571 15.0187 39.6537 15.0228L39.8122 14.8022ZM16.5928 31.292C16.6044 31.3003 16.6276 31.3023 16.6547 31.3003C16.6218 31.29 16.587 31.2776 16.5619 31.257L16.5928 31.292ZM34.7957 19.0788C34.759 18.9736 34.7957 18.7839 34.9078 18.5138C35.0199 18.2437 35.0334 18.0704 34.9484 17.9962L34.8885 17.9447L34.7204 17.924L34.2759 18.023C34.0808 18.0952 33.874 18.2127 33.6653 18.3901L33.7117 18.4292C33.6382 18.7138 33.5146 18.92 33.3368 19.0437C33.1977 19.1179 32.8981 19.2272 32.4324 19.3695C31.9745 19.5097 31.673 19.6334 31.5262 19.7489C31.445 19.9902 31.3059 20.1819 31.1088 20.3242C30.8692 20.4747 30.5967 20.615 30.301 20.7511L29.6189 21.1098C29.3619 21.2088 29.159 21.3119 29.0122 21.4171C28.8827 21.5099 28.7725 21.6563 28.6817 21.8625C28.587 22.0769 28.3764 22.279 28.0537 22.4728C27.8991 22.5347 27.7832 22.5429 27.7078 22.477C27.5242 22.6316 27.3426 22.8502 27.1571 23.1182C26.9754 23.3904 26.7841 23.5987 26.5851 23.741L26.2237 23.9637C25.6093 24.1472 25.2537 24.1987 25.1532 24.1204L23.7078 25.5782C23.5474 25.6463 23.4334 25.6442 23.3619 25.5823L22.2373 27.0134L20.8981 27.5268L20.7281 28.531L18.1735 29.0857L18.4189 29.0568C18.4479 29.162 18.2585 29.4795 17.8411 30.0198L17.2093 30.8776C16.9851 31.0858 16.8305 31.2116 16.7455 31.2446C16.701 31.2611 16.6663 31.2735 16.6373 31.2776C16.6527 31.2797 16.6624 31.29 16.6759 31.292L17.3638 31.2776C17.0122 31.5642 16.7861 31.7869 16.6701 31.9395C16.5523 32.0962 16.5465 32.2138 16.645 32.2921L16.9097 32.3952L17.2634 32.5127C17.2981 32.622 17.3078 32.7189 17.2788 32.8117C17.1938 32.9685 17.0237 33.1705 16.7609 33.418C17.2498 33.1705 17.588 32.987 17.7658 32.8839C17.9416 32.7849 18.2237 32.5994 18.6141 32.3478L20.2933 31.1992L21.5416 30.2672L22.3165 29.6424L23.4817 28.5331L24.9349 27.9908L25.4952 27.5928C25.5745 27.5 25.5861 27.4299 25.5339 27.366C25.4856 27.3062 25.4199 27.2402 25.3349 27.1763L25.6247 26.5515C25.731 26.3329 25.9068 26.135 26.1368 25.9411L26.4556 25.8607L26.5909 25.8587L27.2981 25.1122C27.5764 25.0771 27.8025 24.9967 27.9764 24.8689L28.5039 24.3781L28.9407 23.9348C29.1977 23.7616 29.4122 23.6874 29.5841 23.7121L32.7204 21.2233C33.7948 20.3469 34.6469 19.6273 35.2711 19.0685C35.0295 19.1448 34.8672 19.1406 34.7957 19.0788ZM17.959 32.4076C17.8102 32.4736 17.7638 32.4344 17.8392 32.3045L18.187 31.6673C18.4421 31.5395 18.6547 31.4364 18.8189 31.3828C18.9851 31.3292 19.0952 31.3168 19.1513 31.3642C19.2363 31.4384 19.1725 31.6323 18.9503 31.9498L17.959 32.4076ZM20.7629 29.8198L20.7667 29.4837C20.9677 29.3723 21.1397 29.3228 21.2846 29.3063C21.4315 29.2898 21.5242 29.3434 21.5629 29.4465C21.3948 29.5703 21.1242 29.694 20.7629 29.8198ZM22.8421 28.8465C22.7977 28.896 22.7513 28.9455 22.7107 29.0011L23.1107 28.2403C23.244 28.0423 23.3484 27.9268 23.4083 27.8794C23.4682 27.8341 23.5204 27.8072 23.5667 27.8031L23.2556 28.3557C23.132 28.5083 22.9967 28.6774 22.8421 28.8465ZM24.303 28.0629L24.0518 27.8547L24.446 27.7227L24.5426 27.8052L24.303 28.0629Z" fill="#DCD6D6"/>
</g>
<defs>
<clipPath id="clip0">
<rect width="34" height="34" fill="white" transform="translate(4.5 4)"/>
</clipPath>
</defs>
</svg>
