<svg width="26" height="26" viewBox="0 0 26 26" fill="none" xmlns="http://www.w3.org/2000/svg">
<path d="M22.9167 0.25H3.08333C1.525 0.25 0.25 1.525 0.25 3.08333V22.9167C0.25 24.475 1.525 25.75 3.08333 25.75H22.9167C24.475 25.75 25.75 24.475 25.75 22.9167V3.08333C25.75 1.525 24.475 0.25 22.9167 0.25ZM14.4167 20.0833H7.33333C6.55417 20.0833 5.91667 19.4458 5.91667 18.6667C5.91667 17.8875 6.55417 17.25 7.33333 17.25H14.4167C15.1958 17.25 15.8333 17.8875 15.8333 18.6667C15.8333 19.4458 15.1958 20.0833 14.4167 20.0833ZM18.6667 14.4167H7.33333C6.55417 14.4167 5.91667 13.7792 5.91667 13C5.91667 12.2208 6.55417 11.5833 7.33333 11.5833H18.6667C19.4458 11.5833 20.0833 12.2208 20.0833 13C20.0833 13.7792 19.4458 14.4167 18.6667 14.4167ZM18.6667 8.75H7.33333C6.55417 8.75 5.91667 8.1125 5.91667 7.33333C5.91667 6.55417 6.55417 5.91667 7.33333 5.91667H18.6667C19.4458 5.91667 20.0833 6.55417 20.0833 7.33333C20.0833 8.1125 19.4458 8.75 18.6667 8.75Z" fill="#F2F0F0"/>
</svg>
