<svg width="32" height="26" viewBox="0 0 32 26" fill="none" xmlns="http://www.w3.org/2000/svg">
<path d="M28.7493 0.25H3.24935C1.69102 0.25 0.416016 1.525 0.416016 3.08333V20.0833C0.416016 21.6417 1.69102 22.9167 3.24935 22.9167H10.3327V24.3333C10.3327 25.1125 10.9702 25.75 11.7493 25.75H20.2493C21.0285 25.75 21.666 25.1125 21.666 24.3333V22.9167H28.7493C30.3077 22.9167 31.5827 21.6417 31.5827 20.0833V3.08333C31.5827 1.525 30.3077 0.25 28.7493 0.25ZM27.3327 20.0833H4.66602C3.88685 20.0833 3.24935 19.4458 3.24935 18.6667V4.5C3.24935 3.72083 3.88685 3.08333 4.66602 3.08333H27.3327C28.1118 3.08333 28.7493 3.72083 28.7493 4.5V18.6667C28.7493 19.4458 28.1118 20.0833 27.3327 20.0833ZM24.4993 7.33333H11.7493C10.9702 7.33333 10.3327 7.97083 10.3327 8.75C10.3327 9.52917 10.9702 10.1667 11.7493 10.1667H24.4993C25.2785 10.1667 25.916 9.52917 25.916 8.75C25.916 7.97083 25.2785 7.33333 24.4993 7.33333ZM24.4993 13H11.7493C10.9702 13 10.3327 13.6375 10.3327 14.4167C10.3327 15.1958 10.9702 15.8333 11.7493 15.8333H24.4993C25.2785 15.8333 25.916 15.1958 25.916 14.4167C25.916 13.6375 25.2785 13 24.4993 13ZM8.91602 7.33333H6.08268V10.1667H8.91602V7.33333ZM8.91602 13H6.08268V15.8333H8.91602V13Z" fill="#F2F0F0"/>
</svg>
