<svg width="20" height="20" viewBox="0 0 20 20" fill="none" xmlns="http://www.w3.org/2000/svg">
<path d="M18 0H2C0.9 0 0 0.9 0 2V18C0 19.1 0.9 20 2 20H18C19.1 20 20 19.1 20 18V2C20 0.9 19.1 0 18 0ZM6 6.22C6 5.36 6.7 4.66 7.56 4.66C7.89 4.66 8.2 4.76 8.45 4.94L8.44 4.82C8.44 3.96 9.14 3.26 10 3.26C10.86 3.26 11.56 3.96 11.56 4.82L11.55 4.94C11.81 4.76 12.11 4.66 12.44 4.66C13.3 4.66 14 5.36 14 6.22C14 6.84 13.63 7.38 13.11 7.62C13.63 7.87 14 8.41 14 9.03C14 9.89 13.3 10.59 12.44 10.59C12.11 10.59 11.8 10.48 11.55 10.31L11.56 10.43C11.56 11.29 10.86 11.99 10 11.99C9.14 11.99 8.44 11.29 8.44 10.43L8.45 10.31C8.19 10.49 7.89 10.59 7.56 10.59C6.7 10.59 6 9.89 6 9.03C6 8.41 6.37 7.87 6.89 7.63C6.37 7.38 6 6.84 6 6.22ZM10 17C7.17 17 4.79 15.03 4.16 12.39C3.98 11.65 4.65 10.99 5.39 11.16C8.03 11.79 10 14.17 10 17C10 14.17 11.97 11.79 14.61 11.16C15.35 10.98 16.01 11.65 15.84 12.39C15.21 15.03 12.83 17 10 17Z" fill="#F2F0F0"/>
</svg>
