<svg width="20" height="20" viewBox="0 0 20 20" fill="none" xmlns="http://www.w3.org/2000/svg">
<path d="M18.5007 11.4163H11.4173V18.4997C11.4173 19.2788 10.7798 19.9163 10.0007 19.9163C9.22149 19.9163 8.58399 19.2788 8.58399 18.4997V11.4163H1.50065C0.721484 11.4163 0.0839844 10.7788 0.0839844 9.99968C0.0839844 9.22051 0.721484 8.58301 1.50065 8.58301H8.58399V1.49967C8.58399 0.720508 9.22149 0.0830078 10.0007 0.0830078C10.7798 0.0830078 11.4173 0.720508 11.4173 1.49967V8.58301H18.5007C19.2798 8.58301 19.9173 9.22051 19.9173 9.99968C19.9173 10.7788 19.2798 11.4163 18.5007 11.4163Z" fill="#F2F0F0"/>
</svg>
