<svg width="35" height="35" viewBox="0 0 35 35" fill="none" xmlns="http://www.w3.org/2000/svg">
<path d="M28.0259 18.888C28.0825 18.4347 28.125 17.9813 28.125 17.4997C28.125 17.018 28.0825 16.5647 28.0259 16.1113L31.015 13.7738C31.2842 13.5613 31.355 13.1788 31.185 12.8672L28.3517 7.96551C28.1817 7.65384 27.7992 7.54051 27.4875 7.65384L23.96 9.07051C23.2234 8.50384 22.43 8.03634 21.5659 7.68218L21.0275 3.92801C20.985 3.58801 20.6875 3.33301 20.3334 3.33301H14.6667C14.3125 3.33301 14.015 3.58801 13.9725 3.92801L13.4342 7.68218C12.57 8.03634 11.7767 8.51801 11.04 9.07051L7.51252 7.65384C7.18668 7.52634 6.81835 7.65384 6.64835 7.96551L3.81502 12.8672C3.63085 13.1788 3.71585 13.5613 3.98502 13.7738L6.97418 16.1113C6.91752 16.5647 6.87502 17.0322 6.87502 17.4997C6.87502 17.9672 6.91752 18.4347 6.97418 18.888L3.98502 21.2255C3.71585 21.438 3.64502 21.8205 3.81502 22.1322L6.64835 27.0338C6.81835 27.3455 7.20085 27.4588 7.51252 27.3455L11.04 25.9288C11.7767 26.4955 12.57 26.963 13.4342 27.3172L13.9725 31.0713C14.015 31.4113 14.3125 31.6663 14.6667 31.6663H20.3334C20.6875 31.6663 20.985 31.4113 21.0275 31.0713L21.5659 27.3172C22.43 26.963 23.2234 26.4813 23.96 25.9288L27.4875 27.3455C27.8134 27.473 28.1817 27.3455 28.3517 27.0338L31.185 22.1322C31.355 21.8205 31.2842 21.438 31.015 21.2255L28.0259 18.888ZM17.5 22.458C14.7659 22.458 12.5417 20.2338 12.5417 17.4997C12.5417 14.7655 14.7659 12.5413 17.5 12.5413C20.2342 12.5413 22.4584 14.7655 22.4584 17.4997C22.4584 20.2338 20.2342 22.458 17.5 22.458Z" fill="#F2F0F0"/>
</svg>
