<svg width="23" height="14" viewBox="0 0 23 14" fill="none" xmlns="http://www.w3.org/2000/svg">
<path d="M18.5 10.5H19V10V7C19 6.17614 19.6761 5.5 20.5 5.5C21.3239 5.5 22 6.17614 22 7V12C22 12.8239 21.3239 13.5 20.5 13.5H2.5C1.67614 13.5 1 12.8239 1 12V7C1 6.17614 1.67614 5.5 2.5 5.5C3.32386 5.5 4 6.17614 4 7V10V10.5H4.5H18.5ZM5.5 0.5H17.5C18.3239 0.5 19 1.17614 19 2V3.81846C17.826 4.38305 17 5.57456 17 6.97V8.5H6V6.97C6 5.56788 5.17618 4.37407 4 3.81615V2C4 1.17614 4.67614 0.5 5.5 0.5Z" fill="#F2F0F0" stroke="#F2F0F0"/>
</svg>
